<svg xmlns="http://www.w3.org/2000/svg" xmlns:svg="http://www.w3.org/2000/svg" xmlns:xlink="http://www.w3.org/1999/xlink" width="800" height="240"><defs><symbol xmlns="http://www.w3.org/2000/svg" xmlns:xlink="http://www.w3.org/1999/xlink" id="svg_2" viewBox="0 0 123.6 28.3"><style type="text/css">.st0{fill:#95c11f}.st1{fill:#404040}</style><title>logo-jrebel</title><path id="svg_1" d="m24.4,15.9c0,7.2 -4.6,12.4 -12.2,12.4c-7.1,0 -12.2,-4.2 -12.2,-12l5.2,0c0,4.8 2.3,7.2 7,7.2c4.8,0 7,-3.3 7,-7.5l0,-11l-8.4,0l0,-5l13.6,0l0,15.9l0,0z" class="st0"/><path id="svg_5" d="m52.3,27.8l-6.2,0l-8.1,-9.3l-5,0l0,9.3l-5.2,0l0,-27.8c4.4,0 8.8,0 13.2,0c6.5,0 10,4.4 10,9.2c0,3.8 -1.7,7.6 -7,8.7l8.4,9.5l-0.1,0.4l0,0zm-19.3,-22.9l0,8.9l8,0c3.3,0 4.8,-2.2 4.8,-4.4s-1.5,-4.4 -4.8,-4.4l-8,0l0,-0.1z" class="st1"/><path id="svg_6" d="m56.6,19.7c0.3,2.4 2.4,4.2 5.8,4.2c1.9,0 3.8,-0.6 5.2,-1.8l3.1,3c-2.3,2.1 -5.3,3.2 -8.4,3.2c-6.7,0 -10.7,-4.2 -10.7,-10.4c0,-6 4,-10.2 10.4,-10.2c6.5,0 10.6,4 9.9,12.1l-15.3,-0.1l0,0zm10.7,-4c-0.3,-2.5 -2.3,-3.8 -5.1,-3.8c-2.6,0 -4.8,1.3 -5.5,3.8l10.6,0z" class="st1"/><path id="svg_7" d="m78.9,0.1l0,10.8c1.2,-2 4.4,-3.1 6.4,-3.1c5.7,0 10,3.5 10,10.2c0,6.4 -4.3,10.2 -10.1,10.2c-2.5,0.1 -4.9,-1 -6.3,-3.1l-0.3,2.7l-4.6,0l0,-27.7l4.9,0l0,0zm0.3,17.9c-0.1,3.1 2.4,5.7 5.5,5.8c3.1,0.1 5.7,-2.4 5.8,-5.5c0,-0.1 0,-0.2 0,-0.3c0.2,-3 -2.1,-5.5 -5.1,-5.7c-0.2,0 -0.3,0 -0.5,0c-3.1,-0.1 -5.6,2.4 -5.7,5.5c0,0 0,0.1 0,0.2z" class="st1"/><path id="svg_8" d="m101.4,19.7c0.3,2.4 2.4,4.2 5.8,4.2c1.9,0 3.8,-0.6 5.2,-1.8l3.1,3c-2.3,2.1 -5.3,3.2 -8.4,3.2c-6.7,0 -10.7,-4.2 -10.7,-10.4c0,-6 4,-10.2 10.4,-10.2c6.5,0 10.6,4 9.9,12.1l-15.3,-0.1l0,0zm10.6,-4c-0.3,-2.5 -2.3,-3.8 -5.1,-3.8c-2.6,0 -4.8,1.3 -5.5,3.8l10.6,0z" class="st1"/><path id="svg_9" d="m123.6,0.1l0,27.7l-4.8,0l0,-27.7l4.8,0z" class="st1"/></symbol></defs><g><title>Layer 1</title><use id="svg_3" x="23.241" y="4.947" transform="matrix(0.9048791748984114,0,0,0.9218969367805627,0.7953930124913313,4.59051126241684)" xlink:href="#svg_2"/></g></svg>