<svg xmlns="http://www.w3.org/2000/svg" xmlns:svg="http://www.w3.org/2000/svg" width="200" height="85"><g><title>Layer 1</title><g id="svg_1"><g id="svg_2"><path id="svg_3" fill="#231F20" d="m81.8,28.2l5,-1.2l0,24c0,2.6 0.8,4.2 2.4,4.7c-0.8,1.5 -2.1,2.2 -4,2.2c-2.3,0 -3.4,-1.6 -3.4,-4.7l0,-25z"/><path id="svg_4" fill="#231F20" d="m94.3,57.6l0,-17.3l-2.7,0l0,-4.1l7.8,0l0,21.4l-5.1,0zm2.6,-29.7c0.8,0 1.5,0.3 2,0.8c0.6,0.6 0.8,1.2 0.8,2c0,0.8 -0.3,1.5 -0.8,2c-0.6,0.6 -1.2,0.8 -2,0.8c-0.8,0 -1.5,-0.3 -2,-0.8c-0.6,-0.6 -0.8,-1.2 -0.8,-2c0,-0.8 0.3,-1.5 0.8,-2c0.5,-0.5 1.2,-0.8 2,-0.8z"/><path id="svg_5" fill="#231F20" d="m119,57.6l0,-12.4c0,-1.8 -0.3,-3.2 -1,-4c-0.7,-0.8 -1.8,-1.3 -3.4,-1.3c-0.7,0 -1.5,0.2 -2.3,0.6c-0.8,0.4 -1.5,0.9 -1.9,1.5l0,15.5l-5,0l0,-21.3l3.6,0l0.9,2c1.4,-1.6 3.4,-2.4 6,-2.4c2.5,0 4.5,0.8 6,2.3c1.5,1.5 2.2,3.7 2.2,6.4l0,13.1l-5.1,0z"/><path id="svg_6" fill="#231F20" d="m128,46.8c0,-3.3 0.9,-5.9 2.8,-8c1.9,-2.1 4.4,-3.1 7.5,-3.1c3.2,0 5.8,1 7.6,3c1.8,2 2.7,4.7 2.7,8.1c0,3.4 -0.9,6.1 -2.7,8.1c-1.8,2 -4.3,3 -7.5,3c-3.2,0 -5.8,-1 -7.6,-3c-1.9,-2 -2.8,-4.7 -2.8,-8.1zm5.1,0c0,4.7 1.7,7.1 5.1,7.1c1.6,0 2.8,-0.6 3.7,-1.8c0.9,-1.2 1.4,-3 1.4,-5.2c0,-4.6 -1.7,-7 -5.1,-7c-1.6,0 -2.8,0.6 -3.7,1.8c-0.9,1.2 -1.4,2.9 -1.4,5.1z"/><path id="svg_7" fill="#231F20" d="m166.3,57.6l0,-1.3c-0.4,0.5 -1.1,0.8 -2.1,1.2c-1,0.3 -2,0.5 -3.1,0.5c-3,0 -5.3,-0.9 -7,-2.8c-1.7,-1.9 -2.6,-4.5 -2.6,-7.9c0,-3.4 1,-6.1 2.9,-8.3c2,-2.1 4.4,-3.2 7.4,-3.2c1.6,0 3.1,0.3 4.4,1l0,-8.6l5,-1.2l0,30.6l-4.9,0zm0,-16.3c-1.1,-0.9 -2.2,-1.3 -3.3,-1.3c-2,0 -3.5,0.6 -4.6,1.8c-1.1,1.2 -1.6,3 -1.6,5.2c0,4.4 2.1,6.7 6.4,6.7c0.5,0 1.1,-0.1 1.8,-0.4c0.7,-0.3 1.2,-0.6 1.4,-0.9l0,-11.1l-0.1,0z"/><path id="svg_8" fill="#231F20" d="m195.3,48.4l-15.3,0c0.1,1.7 0.7,3 1.8,4c1.1,0.9 2.5,1.4 4.4,1.4c2.3,0 4,-0.6 5.2,-1.8l1.9,3.8c-1.8,1.4 -4.4,2.1 -7.9,2.1c-3.3,0 -5.8,-1 -7.7,-2.9c-1.9,-1.9 -2.8,-4.6 -2.8,-8c0,-3.4 1,-6.1 3.1,-8.2c2.1,-2.1 4.6,-3.1 7.5,-3.1c3.1,0 5.6,0.9 7.5,2.8c1.9,1.9 2.8,4.2 2.8,7.1c0,0.6 -0.2,1.6 -0.5,2.8zm-15.1,-3.7l10.5,0c-0.3,-3.1 -2.1,-4.7 -5.2,-4.7c-2.8,0 -4.6,1.5 -5.3,4.7z"/></g><g id="svg_9"><path id="svg_10" fill="#556757" d="m57.8,45.1l-0.9,9.9l-2.8,-2l0.3,-5c0,0 0,0 0,0c0,0 0,0 0,0c0,0 0,0 0,-0.1c0,0 0,0 0,0c0,0 0,-0.1 0,-0.1c0,0 0,0 0,0c0,0 0,-0.1 -0.1,-0.1c0,0 0,0 0,0c0,0 0,0 -0.1,0l-6.1,-4l0.1,-4.4l9.6,5.8zm-14.9,10.7l-4.4,-3.3l0,0.8c0,0.2 -0.1,0.3 -0.2,0.4l-3.3,2.2l3.6,2.9c0,0 0,0 0,0c0,0 0,0 0,0c0,0 0,0 0,0.1c0,0 0,0 0,0c0,0 0,0 0,0.1c0,0 0,0 0,0c0,0 0,0 0,0.1c0,0 0,0 0,0l0.1,3.4l4,3.4l0.2,-10.1zm-27.7,4.3l2,9.9l8.5,9.1l-1.5,-10l-9,-9zm8.1,1.5l-2,-13.8l-10.3,-8.6l2.8,13.4l9.5,9zm-3.3,-22.4l-2.9,-19.6l-11.7,-7.3l3.8,18.5l10.8,8.4z"/><path id="svg_11" fill="#00A85D" d="m66.3,39.7l-1.3,9.4l-7.1,5.7l0.8,-9.6l7.6,-5.5zm-22.5,16.1l0.1,10.1l9,-7.2l0.6,-9.9l-9.7,7zm-5.9,4.2l-12.6,9l1.5,10.5l11.6,-9.2l-0.5,-10.3zm-0.3,-7l-0.6,-13.7l-14.9,8.5l2.1,14.3l13.4,-9.1zm-0.9,-21.6l-0.8,-18.6l-17.9,6.8l3,19.9l15.7,-8.1z"/><path id="svg_12" d="m67.3,38.7c0,0 0,0 0,0c0,0 0,-0.1 0,0c0,-0.1 0,-0.1 0,-0.1c0,0 0,0 0,0c0,0 0,0 0,-0.1c0,0 0,0 0,0c0,0 0,0 -0.1,-0.1c0,0 0,0 0,0c0,0 0,0 0,0c0,0 0,0 0,0l-10.3,-5.7c-0.1,-0.1 -0.3,-0.1 -0.5,0l-8.7,5.3c0,0 0,0 0,0c0,0 0,0 0,0c0,0 0,0 0,0c0,0 0,0 0,0c0,0 0,0 0,0.1c0,0 0,0 0,0c0,0 0,0 0,0.1c0,0 0,0 0,0l-0.1,4.6l-3.5,-2.3c-0.1,-0.1 -0.3,-0.1 -0.5,0l-5.1,3.1l-0.2,-5.2c0,0 0,0 0,0c0,0 0,0 0,-0.1c0,0 0,0 0,0c0,0 0,0 0,-0.1c0,0 0,0 0,0c0,0 0,0 0,0c0,0 0,0 0,0c0,0 0,0 0,0l-5.3,-3.6l5,-2.6c0.2,-0.1 0.3,-0.2 0.2,-0.4l-0.8,-19.5c0,0 0,0 0,-0.1c0,0 0,0 0,0c0,0 0,-0.1 0,-0.1c0,0 0,0 0,0c0,0 0,-0.1 -0.1,-0.1c0,0 0,0 0,0c0,0 0,0 0,0c0,0 0,0 0,0c0,0 0,0 0,0l-13.4,-6.5c-0.1,-0.1 -0.2,-0.1 -0.3,0l-19,5.6c0,0 0,0 0,0c0,0 0,0 0,0c0,0 -0.1,0 -0.1,0c0,0 0,0 0,0c0,0 0,0 0,0c0,0 0,0 -0.1,0.1c0,0 0,0 0,0.1c0,0 0,0 0,0.1c0,0 0,0 0,0.1c0,0 0,0 0,0c0,0 0,0 0,0c0,0 0,0 0,0.1c0,0 0,0 0,0.1c0,0 0,0 0,0l4.1,19.7c0,0.1 0.1,0.2 0.2,0.3l5.5,4.3l-4,1.9c0,0 0,0 0,0c0,0 0,0 0,0c0,0 0,0 0,0c0,0 0,0 -0.1,0.1c0,0 0,0 0,0c0,0 0,0.1 0,0.1c0,0 0,0 0,0c0,0 0,0.1 0,0.1c0,0 0,0 0,0c0,0 0,0 0,0c0,0 0,0.1 0,0.1c0,0 0,0 0,0l3.1,14.8c0,0.1 0.1,0.2 0.1,0.2l3.8,3.6l-2.5,1.6c0,0 -0.1,0 -0.1,0.1c0,0 0,0 0,0c0,0 0,0.1 -0.1,0.1c0,0 0,0 0,0c0,0 0,0.1 0,0.1c0,0 0,0.1 0,0.1c0,0 0,0 0,0l2.4,11.5c0,0.1 0.1,0.2 0.1,0.2l9.6,10.2c0,0 0,0 0,0c0,0 0,0 0,0c0,0 0.1,0 0.1,0.1c0,0 0,0 0,0c0,0 0,0 0,0c0.1,0 0.1,0 0.2,0c0,0 0.1,0 0.1,0c0,0 0,0 0,0c0,0 0,0 0,0c0,0 0,0 0,0c0,0 0,0 0,0l12.4,-9.8c0.1,-0.1 0.2,-0.2 0.2,-0.4l-0.3,-6.8l4.1,3.5c0,0 0,0 0,0c0,0 0,0 0.1,0c0,0 0,0 0,0c0,0 0,0 0,0c0,0 0.1,0 0.1,0c0,0 0.1,0 0.1,0c0,0 0,0 0,0c0,0 0,0 0,0c0,0 0,0 0.1,0c0,0 0,0 0,0l9.9,-7.9c0.1,-0.1 0.2,-0.2 0.2,-0.3l0.3,-5l3,2.1c0,0 0,0 0,0c0,0 0,0 0,0c0,0 0,0 0.1,0c0,0 0,0 0,0c0,0 0.1,0 0.1,0c0,0 0.1,0 0.1,0c0,0 0,0 0,0c0,0 0,0 0,0c0,0 0,0 0.1,0c0,0 0,0 0,0l8.1,-6.4c0.1,-0.1 0.2,-0.2 0.2,-0.3l1.5,-10.7c0,0.1 0,0.1 0,0c0,0 0,0 0,0zm-9.4,16l0.8,-9.6l7.5,-5.4l-1.3,9.4l-7,5.6zm-3.8,-1.7l0.3,-5c0,0 0,0 0,0c0,0 0,0 0,0c0,0 0,0 0,-0.1c0,0 0,0 0,0c0,0 0,-0.1 0,-0.1c0,0 0,0 0,0c0,0 0,-0.1 -0.1,-0.1c0,0 0,0 0,0c0,0 0,0 -0.1,0l-6.1,-4l0.1,-4.4l9.6,6l-0.9,9.9l-2.8,-2.2zm-1.2,5.7l-9,7.2l-0.1,-10.1l9.7,-6.9l-0.6,9.8zm-14.5,11.6l-11.6,9.2l-1.5,-10.5l12.6,-9l0.5,10.3zm-21.1,-0.4l-2,-9.9l9.1,9l1.5,10l-8.6,-9.1zm-0.2,-50.3l2.9,19.6l-10.8,-8.4l-3.8,-18.5l11.7,7.3zm18.8,-6.8l0.8,18.6l-15.7,8.1l-3,-19.9l17.9,-6.8zm1.7,40.2l-13.4,9l-2.1,-14.3l14.9,-8.4l0.6,13.7zm-16.3,-5.2l2,13.8l-9.6,-9l-2.8,-13.4l10.4,8.6zm17.5,11.3c0,0 0,0 0,0c0,-0.1 0,-0.1 0,0c0,-0.1 0,-0.1 0,-0.1c0,0 0,0 0,-0.1c0,0 0,0 0,0c0,0 0,0 0,-0.1c0,0 0,0 0,0c0,0 0,0 0,0l-3.6,-2.9l3.3,-2.2c0.1,-0.1 0.2,-0.2 0.2,-0.4l0,-0.8l4.4,3.3l0.1,10.1l-4,-3.4l-0.4,-3.4z"/></g></g></g></svg>